<?xml version="1.0" standalone="no"?>
<!DOCTYPE svg PUBLIC "-//W3C//DTD SVG 20010904//EN"
 "http://www.w3.org/TR/2001/REC-SVG-20010904/DTD/svg10.dtd">
<svg version="1.0" xmlns="http://www.w3.org/2000/svg"
 width="500.000000pt" height="500.000000pt" viewBox="0 0 500.000000 500.000000"
 preserveAspectRatio="xMidYMid meet">
<metadata>
Created by potrace 1.15, written by Peter Selinger 2001-2017
</metadata>
<g transform="translate(0.000000,500.000000) scale(0.100000,-0.100000)"
fill="#000000" stroke="none">
<path d="M2914 3135 c-6 -16 -98 -238 -203 -493 -105 -254 -191 -467 -191
-472 0 -7 41 -10 112 -8 l111 3 45 113 44 112 212 0 212 0 45 -112 45 -113
118 -3 c109 -2 117 -1 112 15 -3 10 -98 234 -211 498 l-204 480 -117 5 -117 5
-13 -30z m196 -382 c36 -91 66 -172 68 -180 3 -10 -25 -13 -138 -13 -131 0
-142 1 -136 18 60 161 132 342 136 342 3 0 34 -75 70 -167z"/>
<path d="M3793 3162 l-103 -3 0 -500 0 -500 108 3 107 3 3 494 c1 272 -1 497
-5 500 -5 3 -54 5 -110 3z"/>
<path d="M4074 3155 c-2 -5 -3 -230 -2 -500 l3 -490 325 1 c313 1 327 2 384
24 110 42 178 141 179 260 1 104 -53 187 -148 226 l-42 18 38 28 c63 46 93
100 97 178 3 53 0 75 -17 107 -27 55 -76 102 -131 127 -42 20 -68 21 -364 26
-208 3 -320 2 -322 -5z m535 -166 c63 -13 91 -45 91 -103 0 -23 -7 -52 -16
-65 -30 -42 -71 -51 -239 -51 l-155 0 0 115 0 115 135 0 c73 0 157 -5 184 -11z
m64 -413 c21 -10 44 -31 52 -47 20 -37 19 -109 -1 -137 -33 -48 -67 -56 -256
-60 l-178 -4 0 137 0 137 173 -4 c142 -3 179 -7 210 -22z"/>
<path d="M1572 2668 c-111 -271 -202 -497 -202 -501 0 -4 50 -6 112 -5 l112 3
44 113 44 112 212 0 213 0 45 -112 46 -113 116 -3 c64 -1 116 1 116 5 0 4 -94
229 -209 498 l-209 490 -119 3 -118 2 -203 -492z m391 79 c37 -94 68 -175 67
-179 0 -5 -63 -8 -141 -8 -78 0 -139 4 -137 9 80 215 134 351 138 351 3 0 36
-78 73 -173z"/>
<path d="M302 2535 l-302 -605 611 0 c374 0 609 4 607 9 -10 28 -604 1201
-608 1201 -3 0 -141 -272 -308 -605z m231 100 c18 -5 27 -14 27 -29 1 -20 2
-20 14 -3 17 22 76 24 76 2 0 -8 5 -15 10 -15 6 0 10 9 10 19 0 12 10 21 28
26 49 13 82 15 82 4 0 -6 4 -7 10 -4 5 3 19 -2 29 -12 38 -35 57 -127 26 -121
-11 2 -26 -20 -49 -72 l-33 -75 -147 -3 -147 -3 -36 80 c-24 54 -40 78 -49 74
-14 -5 -19 17 -16 60 2 20 48 70 72 79 17 7 52 4 93 -7z m130 -400 l86 -65
118 0 c125 0 183 -10 204 -36 11 -14 10 -18 -6 -30 -14 -10 -56 -14 -163 -14
l-144 0 -93 -65 c-82 -57 -99 -65 -139 -65 -25 0 -46 2 -46 5 0 3 20 31 45 63
l45 57 -164 3 c-120 2 -167 6 -175 15 -6 8 -14 46 -17 85 l-7 72 26 0 c19 0
31 -8 42 -29 30 -59 36 -61 166 -61 65 0 119 3 119 8 0 4 -16 31 -35 59 -19
29 -35 55 -35 58 0 3 20 5 43 5 38 0 55 -8 130 -65z"/>
<path d="M426 2578 c-18 -25 -20 -56 -6 -78 5 -8 10 -10 10 -5 0 6 5 2 11 -9
9 -14 8 -20 -1 -26 -9 -6 -7 -11 9 -20 17 -9 26 -9 37 1 20 16 17 29 -6 29
-13 0 -20 7 -20 20 0 11 6 20 13 20 8 0 13 10 13 21 -1 12 5 24 12 26 7 3 12
-5 12 -21 0 -16 6 -26 15 -26 8 0 15 -4 15 -9 0 -5 3 -17 6 -25 5 -12 2 -15
-10 -10 -9 3 -16 1 -16 -5 0 -15 39 -29 62 -23 22 5 24 22 3 22 -9 0 -15 9
-15 21 0 15 5 19 15 15 8 -3 15 -1 15 4 0 6 -4 10 -10 10 -5 0 -10 13 -10 30
0 25 -6 32 -36 45 -54 22 -100 19 -118 -7z"/>
<path d="M683 2584 c-24 -10 -33 -21 -33 -38 0 -14 -4 -28 -10 -31 -5 -3 -10
-11 -10 -17 0 -7 6 -6 15 2 13 11 15 8 15 -14 0 -16 -5 -26 -15 -26 -21 0 -19
-17 3 -22 23 -6 62 8 62 23 0 6 -7 9 -15 5 -16 -6 -19 3 -9 28 3 9 12 16 20
16 8 0 14 10 14 26 0 16 5 24 13 21 6 -2 11 -14 10 -26 -2 -13 3 -21 12 -21
22 0 18 -31 -5 -37 -24 -6 -25 -16 -6 -32 11 -10 20 -10 37 -1 15 8 18 15 10
19 -6 4 -9 15 -5 24 3 9 10 14 15 12 16 -11 23 48 8 74 -12 20 -23 26 -54 28
-22 1 -55 -5 -72 -13z"/>
</g>
</svg>
