<?xml version="1.0" encoding="UTF-8" standalone="no"?>
<svg xmlns:dc="http://purl.org/dc/elements/1.1/" xmlns:cc="http://creativecommons.org/ns#" xmlns:rdf="http://www.w3.org/1999/02/22-rdf-syntax-ns#" xmlns:svg="http://www.w3.org/2000/svg" xmlns="http://www.w3.org/2000/svg" xmlns:xlink="http://www.w3.org/1999/xlink" id="svg3336" version="1.1" xml:space="preserve" width="531.5" height="251.09375" viewBox="0 0 531.49999 251.09375"><metadata id="metadata3342"><rdf:RDF><cc:Work rdf:about=""><dc:format>image/svg+xml</dc:format><dc:type rdf:resource="http://purl.org/dc/dcmitype/StillImage"/><dc:title/></cc:Work></rdf:RDF></metadata><defs id="defs3340"><clipPath clipPathUnits="userSpaceOnUse" id="clipPath3446"><path d="m 543.381,379.091 -84.689,0 0,84.689 84.689,0 0,-84.689" id="path3448"/></clipPath>
<clipPath clipPathUnits="userSpaceOnUse" id="clipPath3476"><path d="m 534.41,92.705 -95.571,0 0,95.572 95.571,0 0,-95.572" id="path3478"/></clipPath><clipPath clipPathUnits="userSpaceOnUse" id="clipPath3520"><path d="m 312.794,300.518 -180.702,0 0,240.935 180.702,0 0,-240.935" id="path3522"/></clipPath><clipPath clipPathUnits="userSpaceOnUse" id="clipPath3532"><path d="m 312.877,580.692 -180.754,0 0,240.94 180.754,0 0,-240.94" id="path3534"/></clipPath>
</defs><g transform="matrix(0,6.25,6.25,0,0,34.01875)" id="g3396"><path id="path3398" style="fill:#f04e27;fill-opacity:1;fill-rule:evenodd;stroke:none" d="M 0,0 0,16.157 4.531,17.342 4.531,0 0,0"/></g><g transform="matrix(0,6.25,6.25,0,94.85003,11.3125)" id="g3400"><path id="path3402" style="fill:#f04e27;fill-opacity:1;fill-rule:evenodd;stroke:none" d="m 0,0 -1.81,-0.573 0,15.596 13.67,13.761 0,-2.663 L 0,14.246 0,0"/></g><g transform="matrix(0,6.25,6.25,0,374.77503,201.8875)" id="g3404"><path id="path3406" style="fill:#f04e27;fill-opacity:1;fill-rule:evenodd;stroke:none" d="m 0,0 7.873,7.874 0,17.202 -4.532,0 0,-18.96 L 0,2.816 0,0"/></g><g transform="matrix(0,6.25,6.25,0,153.62503,98.9625)" id="g3408"><path id="path3410" style="fill:#443291;fill-opacity:1;fill-rule:evenodd;stroke:none" d="m 0,0 0,2.803 0.076,0.14 0,0.433 0.063,0.141 0,0.28 0.076,0.14 0,0.14 0.064,0.064 0,0.14 0.076,0.14 0,0.077 0.063,0.14 0.076,0.064 0,0.14 0.063,0.076 0.076,0.14 0,0.064 0.063,0.076 0.076,0.141 0.063,0.064 0,0.076 0.076,0.064 0.064,0.076 0.076,0.064 0.063,0.076 0.076,0.064 0.063,0.076 0.076,0.064 0.063,0.077 0.076,0 0.064,0.063 0.076,0.077 0.063,0 0.076,0.063 0.063,0.077 0.076,0 0.063,0.064 0.14,0 0.076,0.076 0.417,0 0.064,0.064 0.152,0 L 2.861,6.46 3,6.46 C 3.5,6.493 3.22,6.363 3.557,6.384 l 0.076,-0.064 0.063,0 0.076,-0.077 0.063,0 0.076,-0.063 0.064,0 0.075,-0.077 0.064,0 0.076,-0.063 0.139,0 0.063,-0.077 0,-0.064 0.076,0 0.064,-0.076 0.075,-0.064 0.064,0 L 4.747,5.683 4.81,5.619 4.886,5.543 4.949,5.479 5.025,5.403 5.089,5.339 5.164,5.262 5.228,5.198 5.228,5.122 5.304,5.058 5.367,4.982 5.443,4.918 5.506,4.842 5.582,4.778 l 0,-0.076 0.063,-0.064 0.076,-0.076 0,-0.064 0.064,0 0,-0.077 0.076,-0.063 C 5.84,4.054 6.16,3.884 6.139,3.58 l 0.076,-0.063 0,-0.077 0.063,-0.064 0,-0.152 0.076,-0.064 0,-0.14 0.063,-0.077 0,-0.14 0.076,-0.064 0,-0.216 0.064,-0.064 0,-0.076 0,0.076 0.076,0.14 0,0.204 0.063,0.14 0,0.077 0.076,0.14 0,0.216 0.063,0.064 0,0.14 0.076,0.077 0,0.063 0.063,0.141 0,0.076 0.076,0.064 0.064,0.076 0,0.064 0.076,0.076 0,0.141 0.063,0.063 0.076,0.077 0,0.064 0.063,0 0.076,0.076 0,0.064 0.063,0.076 0.076,0.064 0.064,0.076 0.076,0.064 0.063,0.076 0.076,0 0,0.064 0.063,0 0.076,0.076 0.063,0 0.076,0.064 0.064,0 0.076,0.077 0.063,0 0.076,0.064 0.202,0 0.076,0.076 c 0.186,0 0.371,0 0.557,0 l 0.355,0 0.063,-0.076 0.278,0 0.076,-0.064 0.139,0 0.064,-0.077 0.139,0 0.076,-0.064 0.063,-0.076 0.076,0 0.064,-0.064 0.139,0 0.076,-0.076 0.063,-0.064 0.076,0 0.063,-0.076 0.076,0 0,-0.064 0.063,0 0.076,-0.076 0.064,-0.064 0.076,0 0.063,-0.076 0,-0.064 0.076,0 0.063,-0.077 0.076,-0.063 0.063,-0.077 0.076,0 0,-0.064 0.064,-0.076 0.076,-0.064 0.063,-0.076 0,-0.064 0.076,0 0.063,-0.076 0.076,-0.064 0,-0.077 0.063,-0.063 0.076,-0.077 0.064,-0.063 0,-0.077 0.075,-0.064 0.076,-0.076 0,-0.076 0.064,-0.064 0.075,-0.077 0,-0.063 0.064,-0.077 0,-0.064 0.076,-0.076 0.063,-0.064 0,-0.076 0.076,-0.064 0,-0.076 0.063,-0.064 0,-0.14 0.076,-0.077 0,-0.063 0.064,-0.077 0,-0.063 0.075,-0.077 0,-0.064 0.064,-0.14 0,-0.076 0.076,-0.064 0,-0.14 0.063,-0.077 0,-0.203 0.076,-0.077 0,-0.28 0.063,-0.064 0,-0.28 0.076,-0.14 0,-0.434 0.064,-0.063 0,-0.281 c -0.032,-0.501 0.12,-0.186 0.076,-0.917 l 0,-0.204 0.063,-0.076 0,-0.765 0.076,-0.076 0,-0.141 c 0,-0.186 0,-0.373 0,-0.56 l 0,-12.143 L 0,-11.162 0,0 Z m 0,45.501 0,5.9 8.367,-2.383 0.076,-0.076 0.139,0 0.063,-0.064 0.076,0 0.064,-0.076 0.215,0 0.063,-0.077 0.076,0 0.063,-0.064 0.076,0 0.076,-0.076 0.063,0 0.076,-0.064 0.064,0 0.139,-0.14 0.076,0 0.063,-0.076 0.076,0 0.063,-0.064 0.076,-0.077 0.064,0 0.075,-0.063 0.064,0 0.076,-0.077 c 0.309,-0.337 0.009,0.081 0.417,-0.344 l 0.064,0 0.076,-0.076 0.063,-0.064 0.076,-0.076 0.063,-0.064 0.076,0 c 0.103,-0.129 0.239,-0.228 0.342,-0.357 l 0.076,-0.064 0.063,-0.076 0,-0.064 0.076,-0.076 0.063,-0.064 0.14,-0.14 0.076,-0.077 0.063,-0.063 0,-0.077 0.076,-0.064 0.063,-0.076 0.076,-0.064 0.063,-0.076 0,-0.14 0.076,-0.064 0.064,-0.077 0.075,-0.063 0,-0.077 0.076,-0.063 0.064,-0.153 0.075,-0.064 0,-0.076 0.064,-0.064 0.076,-0.14 0,-0.077 0.063,-0.063 0.076,-0.077 0,-0.064 0.063,-0.14 0.076,-0.076 0,-0.064 0.064,-0.076 0,-0.064 0.075,-0.14 0,-0.076 0.064,-0.064 0,-0.077 0.076,-0.14 0,-0.064 0.063,-0.076 0,-0.064 0.076,-0.076 0,-0.204 0.063,-0.076 0,-0.064 0.076,-0.077 0,-0.204 0.064,-0.076 0,-0.204 0.076,-0.076 0,-0.281 0.063,-0.14 0,-0.217 0.076,-0.14 0,-0.204 0.063,-0.14 0,-0.42 0.076,-0.14 0,-0.497 0.063,-0.14 0,-0.281 c 0,-0.255 0,-0.509 0,-0.764 l 0.076,-0.14 0,-0.434 c 0,-0.14 0,-0.28 0,-0.42 l 0,-0.344 -0.076,-0.077 0,-0.484 0.076,0 0,-0.28 c 0,-0.119 0,-0.238 0,-0.357 l 0,-0.561 -0.076,-0.063 0,-0.497 c 0,-0.14 0,-0.281 0,-0.421 l 0,-0.216 c 0.033,-0.428 -0.083,-0.276 -0.063,-0.561 l 0,-0.624 -0.076,-0.077 0,-0.484 -0.063,-0.14 0,-0.357 -0.076,-0.064 0,-0.216 -0.063,-0.141 0,-0.216 -0.076,-0.064 0,-0.14 -0.064,-0.076 0,-0.204 -0.076,-0.077 0,-0.063 -0.063,-0.077 0,-0.14 -0.076,-0.064 0,-0.14 -0.063,0 0,-0.076 -0.076,-0.064 0,-0.076 -0.064,-0.064 0,-0.077 -0.075,-0.063 0,-0.077 -0.064,-0.063 0,-0.077 -0.076,0 0,-0.064 -0.063,-0.076 -0.076,-0.064 -0.063,-0.076 0,-0.064 -0.076,-0.076 -0.064,-0.064 -0.075,-0.077 -0.064,-0.063 -0.076,-0.077 -0.075,-0.063 -0.064,-0.077 -0.076,-0.064 -0.063,0 0,-0.076 -0.076,-0.064 -0.063,0 -0.076,-0.076 -0.063,-0.077 -0.076,0 0,-0.063 -0.064,0 -0.076,-0.077 -0.063,0 -0.076,-0.064 -0.063,0 -0.076,-0.076 -0.139,0 0,-0.064 -0.14,0 -0.063,-0.076 -0.215,0 -0.063,-0.064 -0.557,0 -0.076,-0.076 -0.76,0 -0.076,0.076 -0.556,0 -0.076,0.064 -0.203,0 -0.076,0.076 -0.139,0 -8.367,2.459 0,7.646 8.582,-2.523 0.063,0 c 0.329,0.016 -0.019,-0.095 0.557,-0.064 l 0.431,0 0.063,0.064 0.139,0 0.076,0.076 0.063,0 0.076,0.064 0.064,0 0,0.076 0.075,0 0.064,0.064 0.076,0.077 0.063,0.063 0.076,0.077 0,0.063 0.063,0 0,0.077 0.076,0.064 0,0.076 0.064,0 0,0.14 0.075,0 0,0.14 0.064,0.064 0,0.14 0.076,0.077 0,0.204 0.063,0.076 0,0.204 -0.063,0.076 0,0.281 -0.076,0.063 0,0.14 -0.064,0.077 0,0.217 -0.075,0 0,0.14 -0.064,0.063 0,0.141 -0.076,0 0,0.14 -0.063,0 0,0.14 -0.076,0 0,0.14 -0.063,0.077 -0.076,0.063 -0.064,0.077 -0.075,0.063 0,0.077 -0.064,0.064 -0.076,0.076 -0.139,0.14 0,0.064 -0.063,0 -0.139,0.14 -0.076,0 0,0.077 -0.064,0 -0.076,0.063 -0.063,0.077 -0.076,0 -0.076,0.063 -0.063,0 0,0.077 -0.139,0 -0.076,0.063 -0.063,0 -0.076,0.077 -0.14,0 L 8.582,41.284 0,43.743 0,45.501 Z m 0,-19.304 0,1.746 3,-0.841 0,-8.703 2.443,-0.701 0,7.365 2.861,-0.764 0,-7.442 5.721,-1.694 0,-7.722 L 0,11.582 0,26.197 Z m 5.506,-30.275 0,-0.981 -2.708,0.778 0,0.981 0.063,0.063 c 0,0.213 0,0.425 0,0.637 l 0,0.141 0.076,0.076 0,0.281 0.063,0.063 0,0.14 0.076,0.077 0,0.063 0.063,0.077 0,0.064 0.076,0 0,0.076 0.064,0 0,0.064 0.075,0 0.064,0.076 0.076,0 0.063,0.064 0.557,0 0.076,-0.064 0.139,0 0.063,-0.076 0.076,0 0,-0.064 0.139,0 0,-0.076 0.064,0 0.076,-0.064 0,-0.077 0.063,0 0.076,-0.063 0,-0.077 0.063,0 0,-0.063 0.076,0 0,-0.077 0.064,-0.063 0,-0.077 0.075,0 0,-0.14 0.064,0 0,-0.14 0.076,-0.064 0,-0.14 0.063,-0.077 0,-0.28 0.076,-0.064 0,-0.637 0.063,-0.076 0,-0.281 z m 5.519,-1.184 0,-1.415 -2.861,0.854 0,1.465 c 0,0.14 0,0.28 0,0.421 l 0,0.216 0.064,0.064 0,0.42 0.076,0 0,0.293 0.063,0 0,0.141 0.076,0.063 0,0.14 0.063,0 0,0.077 0.076,0.064 0.063,0.076 0.076,0 0,0.064 0.064,0 0,0.076 0.076,0 0.063,0.064 0.633,0 0.076,-0.064 0.139,0 0,-0.076 0.139,0 0,-0.064 0.063,0 0.076,-0.076 0.064,-0.064 0.075,0 0,-0.077 0.064,0 0,-0.063 0.076,0 0,-0.077 0.063,0 0,-0.063 0.076,-0.077 0,-0.064 0.063,0 0,-0.076 0.076,-0.064 0,-0.076 0.064,-0.077 0,-0.063 0.075,-0.077 0,-0.14 0.064,-0.064 0,-0.216 0.076,-0.064 0,-0.217 0.063,-0.063 0,-0.561 0.076,-0.076 0,-0.484"/></g></svg>